<?xml version="1.0" standalone="no"?>
<!DOCTYPE svg PUBLIC "-//W3C//DTD SVG 20010904//EN"
 "http://www.w3.org/TR/2001/REC-SVG-20010904/DTD/svg10.dtd">
<svg version="1.0" xmlns="http://www.w3.org/2000/svg"
 width="192.000000pt" height="192.000000pt" viewBox="0 0 192.000000 192.000000"
 preserveAspectRatio="xMidYMid meet">
<metadata>
Created by potrace 1.14, written by Peter Selinger 2001-2017
</metadata>
<g transform="translate(0.000000,192.000000) scale(0.100000,-0.100000)"
fill="#000000" stroke="none">
<path d="M1196 1638 c-7 -13 -16 -38 -20 -57 -3 -18 -24 -61 -46 -94 -48 -72
-51 -113 -9 -136 24 -13 29 -13 57 7 71 51 132 225 97 278 -20 31 -60 32 -79
2z"/>
<path d="M767 1542 c-34 -38 -5 -141 49 -178 65 -44 112 -54 159 -32 48 22 26
108 -28 108 -32 0 -64 26 -87 69 -27 54 -63 66 -93 33z"/>
<path d="M1230 1346 c-59 -13 -155 -41 -290 -87 -108 -36 -143 -75 -102 -112
24 -22 52 -21 140 3 88 25 82 25 82 -4 0 -17 -12 -34 -35 -51 -34 -26 -34 -28
-19 -57 11 -21 20 -27 33 -23 25 8 43 -18 39 -57 -3 -32 -4 -33 -123 -73 -66
-22 -126 -44 -132 -48 -19 -12 -16 -41 7 -67 l21 -24 110 27 c61 15 114 25
119 22 4 -2 11 -44 14 -92 14 -183 29 -309 42 -340 18 -46 55 -61 90 -38 30
19 30 5 3 290 -6 72 -12 150 -13 174 -1 43 0 45 34 53 19 4 80 12 135 18 109
12 135 26 135 70 0 61 -64 74 -217 45 -114 -22 -113 -22 -113 28 1 36 5 45 33
62 18 11 33 30 35 42 4 30 -31 63 -68 63 -20 0 -30 5 -30 15 0 14 24 23 118
44 77 17 105 68 62 111 -22 22 -31 23 -110 6z"/>
<path d="M400 1178 c-62 -24 -170 -123 -170 -156 0 -49 31 -177 51 -209 23
-37 53 -53 100 -53 16 0 29 -4 29 -8 0 -5 12 -14 27 -21 24 -11 34 -8 97 25
39 20 83 45 98 55 63 45 88 171 49 247 -62 118 -169 164 -281 120z m148 -144
c55 -58 41 -111 -42 -152 -25 -13 -48 -27 -51 -33 -4 -5 -15 -9 -25 -9 -23 0
-37 46 -42 135 l-3 60 45 23 c53 26 74 22 118 -24z"/>
</g>
</svg>
