<?xml version="1.0" standalone="no"?>
<!DOCTYPE svg PUBLIC "-//W3C//DTD SVG 20010904//EN"
 "http://www.w3.org/TR/2001/REC-SVG-20010904/DTD/svg10.dtd">
<svg version="1.0" xmlns="http://www.w3.org/2000/svg"
 width="132.000000pt" height="132.000000pt" viewBox="0 0 132.000000 132.000000"
 preserveAspectRatio="xMidYMid meet">
<metadata>
Created by potrace 1.10, written by Peter Selinger 2001-2011
</metadata>
<g transform="translate(0.000000,132.000000) scale(0.100000,-0.100000)"
fill="#000000" stroke="none">
<path d="M816 1098 c-9 -12 -16 -29 -16 -37 0 -8 -12 -32 -26 -53 -31 -45 -26
-71 12 -66 41 5 84 65 89 122 2 28 0 46 -7 46 -6 0 -8 -9 -5 -19 3 -13 1 -18
-8 -15 -10 4 -12 -5 -8 -37 4 -30 3 -40 -5 -35 -7 4 -12 2 -12 -4 0 -6 -6 -18
-14 -26 -11 -11 -16 -11 -19 -1 -4 9 -6 9 -6 0 -1 -7 -5 -13 -11 -13 -11 0 -2
31 14 45 17 16 38 56 32 62 -2 3 -1 16 4 29 12 30 6 31 -14 2z"/>
<path d="M543 1059 c-27 -10 -29 -35 -9 -83 14 -33 65 -66 104 -66 20 0 52 24
52 38 -1 31 -90 73 -90 42 0 -5 6 -10 13 -10 22 0 38 -16 32 -33 -8 -18 -33
-15 -69 8 -26 17 -30 26 -26 55 3 22 8 24 25 10 12 -10 15 -10 15 2 0 28 -24
47 -47 37z"/>
<path d="M851 921 c-11 -7 -5 -10 20 -13 19 -2 33 -7 33 -13 -2 -12 -54 -42
-85 -48 -14 -2 -6 -5 19 -6 42 -1 102 28 102 49 0 30 -58 50 -89 31z"/>
<path d="M745 893 c-11 -2 -36 -10 -56 -18 -20 -8 -39 -11 -43 -8 -3 4 -6 1
-6 -5 0 -6 -15 -14 -33 -17 -24 -5 -33 -12 -33 -26 0 -10 4 -19 9 -19 4 0 5
-4 2 -10 -3 -5 2 -10 12 -10 29 0 63 12 63 21 0 12 -37 11 -45 -1 -9 -15 -25
-2 -18 15 3 8 14 15 24 15 10 0 19 4 19 8 0 10 92 42 119 42 9 0 23 5 31 10
12 8 11 10 -5 9 -11 -1 -29 -3 -40 -6z"/>
<path d="M265 799 c-42 -21 -75 -54 -75 -72 0 -6 7 -1 16 11 8 12 20 22 25 22
6 0 22 9 36 20 36 28 82 25 132 -9 24 -15 41 -30 40 -32 -2 -2 4 -14 12 -27
21 -29 8 -96 -23 -129 -28 -29 -118 -75 -111 -57 5 14 -8 19 -20 8 -9 -10 4
-34 19 -34 13 0 52 18 64 30 3 3 16 11 30 18 40 20 70 72 70 121 0 33 -7 52
-31 82 -56 71 -113 85 -184 48z"/>
<path d="M833 754 c-23 -25 -15 -31 18 -14 10 6 19 17 19 25 0 21 -11 17 -37
-11z"/>
<path d="M293 747 c-4 -7 4 -8 25 -4 20 4 34 1 42 -8 7 -8 17 -15 23 -15 6 0
4 8 -6 17 -19 19 -74 26 -84 10z"/>
<path d="M160 689 c0 -75 59 -179 94 -166 23 9 19 22 -6 24 -24 2 -40 25 -46
63 -2 13 -8 30 -13 37 -6 6 -9 17 -8 25 3 24 -1 38 -11 38 -5 0 -10 -9 -10
-21z"/>
<path d="M870 661 c-63 -22 -51 -25 35 -11 60 10 115 5 115 -10 0 -12 -51 -28
-108 -33 -50 -4 -71 -11 -61 -22 5 -4 123 10 167 20 19 5 23 11 20 38 -3 31
-4 32 -58 34 -33 1 -77 -5 -110 -16z"/>
<path d="M245 648 c3 -13 8 -34 10 -46 6 -39 15 -38 15 1 0 42 -8 67 -22 67
-6 0 -7 -9 -3 -22z"/>
<path d="M397 640 c-4 -17 -20 -31 -47 -42 -22 -9 -40 -21 -40 -27 0 -7 8 -7
25 1 14 6 25 15 25 20 0 4 6 8 14 8 19 0 38 26 34 47 -3 14 -5 13 -11 -7z"/>
<path d="M660 549 c0 -6 -7 -8 -16 -5 -10 4 -13 2 -8 -6 5 -7 -1 -9 -17 -5
-13 3 -31 2 -39 -3 -22 -14 33 -13 81 2 42 12 52 28 19 28 -11 0 -20 -5 -20
-11z"/>
<path d="M810 541 c-7 -14 -7 -21 0 -21 6 0 10 -31 10 -79 0 -44 4 -82 8 -85
5 -3 9 -28 11 -56 1 -34 -1 -50 -8 -45 -6 3 -11 0 -11 -7 0 -9 -4 -8 -14 2 -8
8 -17 40 -19 70 -15 166 -20 210 -26 210 -8 0 6 -220 17 -262 4 -17 17 -37 29
-45 18 -12 23 -12 38 3 14 14 16 27 10 63 -4 25 -10 95 -15 154 -4 59 -10 110
-13 113 -3 3 -10 -4 -17 -15z"/>
</g>
</svg>
